<svg width="34" height="35" viewBox="0 0 34 35" fill="none" xmlns="http://www.w3.org/2000/svg">
<path d="M26.9167 4.74999H17.6687C17.4496 4.75144 17.233 4.70299 17.0354 4.60832L12.5644 2.36432C11.9742 2.07043 11.324 1.9172 10.6647 1.91666H7.08333C5.20541 1.91891 3.40504 2.66591 2.07714 3.9938C0.749249 5.3217 0.00224946 7.12206 0 8.99999L0 26C0.00224946 27.8779 0.749249 29.6783 2.07714 31.0062C3.40504 32.3341 5.20541 33.0811 7.08333 33.0833H26.9167C28.7946 33.0811 30.595 32.3341 31.9229 31.0062C33.2508 29.6783 33.9977 27.8779 34 26V11.8333C33.9977 9.9554 33.2508 8.15503 31.9229 6.82713C30.595 5.49924 28.7946 4.75224 26.9167 4.74999ZM7.08333 4.74999H10.6647C10.8838 4.74854 11.1003 4.79699 11.2979 4.89166L15.7689 7.12857C16.3585 7.42492 17.0088 7.58058 17.6687 7.58332H26.9167C27.7639 7.58471 28.5914 7.83927 29.2929 8.31434C29.9944 8.78941 30.5379 9.4633 30.8536 10.2495L2.83333 10.4082V8.99999C2.83333 7.87282 3.2811 6.79182 4.07813 5.99479C4.87516 5.19776 5.95616 4.74999 7.08333 4.74999ZM26.9167 30.25H7.08333C5.95616 30.25 4.87516 29.8022 4.07813 29.0052C3.2811 28.2082 2.83333 27.1272 2.83333 26V13.2415L31.1667 13.0814V26C31.1667 27.1272 30.7189 28.2082 29.9219 29.0052C29.1248 29.8022 28.0438 30.25 26.9167 30.25Z" fill="white"/>
<path d="M26.9167 4.74999H17.6687C17.4496 4.75144 17.233 4.70299 17.0354 4.60832L12.5644 2.36432C11.9742 2.07043 11.324 1.9172 10.6647 1.91666H7.08333C5.20541 1.91891 3.40504 2.66591 2.07714 3.9938C0.749249 5.3217 0.00224946 7.12206 0 8.99999L0 26C0.00224946 27.8779 0.749249 29.6783 2.07714 31.0062C3.40504 32.3341 5.20541 33.0811 7.08333 33.0833H26.9167C28.7946 33.0811 30.595 32.3341 31.9229 31.0062C33.2508 29.6783 33.9977 27.8779 34 26V11.8333C33.9977 9.9554 33.2508 8.15503 31.9229 6.82713C30.595 5.49924 28.7946 4.75224 26.9167 4.74999ZM7.08333 4.74999H10.6647C10.8838 4.74854 11.1003 4.79699 11.2979 4.89166L15.7689 7.12857C16.3585 7.42492 17.0088 7.58058 17.6687 7.58332H26.9167C27.7639 7.58471 28.5914 7.83927 29.2929 8.31434C29.9944 8.78941 30.5379 9.4633 30.8536 10.2495L2.83333 10.4082V8.99999C2.83333 7.87282 3.2811 6.79182 4.07813 5.99479C4.87516 5.19776 5.95616 4.74999 7.08333 4.74999ZM26.9167 30.25H7.08333C5.95616 30.25 4.87516 29.8022 4.07813 29.0052C3.2811 28.2082 2.83333 27.1272 2.83333 26V13.2415L31.1667 13.0814V26C31.1667 27.1272 30.7189 28.2082 29.9219 29.0052C29.1248 29.8022 28.0438 30.25 26.9167 30.25Z" fill="#808080"/>
</svg>
