<svg width="32" height="33" viewBox="0 0 32 33" fill="none" xmlns="http://www.w3.org/2000/svg">
<g clip-path="url(#clip0_194_265)">
<path d="M24.6667 32.5H7.33333C3.29067 32.5 0 29.2093 0 25.1667V13.6813C0 11.2413 1.208 8.96934 3.232 7.60268L11.8987 1.75468C14.388 0.0720091 17.6107 0.0720091 20.1027 1.75468L28.768 7.60268C30.792 8.96801 32 11.2413 32 13.6813V25.1667C32 29.2093 28.7093 32.5 24.6667 32.5ZM16 4.49601C15.352 4.49601 14.7013 4.68801 14.1373 5.07068L5.46933 10.9173C4.55067 11.5387 4 12.5707 4 13.68V25.1653C4 27.004 5.49467 28.4987 7.33333 28.4987H24.6667C26.5053 28.4987 28 27.004 28 25.1653V13.6813C28 12.572 27.4507 11.54 26.5307 10.9187L17.864 5.07068C17.2973 4.68801 16.648 4.49601 16 4.49601Z" fill="#808080"/>
</g>
<defs>
<clipPath id="clip0_194_265">
<rect width="32" height="32" fill="white" transform="translate(0 0.5)"/>
</clipPath>
</defs>
</svg>
