<svg width="33" height="33" viewBox="0 0 33 33" fill="none" xmlns="http://www.w3.org/2000/svg">
<g clip-path="url(#clip0_194_267)">
<path d="M32.6666 15.8333C32.6666 16.9387 31.772 17.8333 30.6666 17.8333H2.66663C1.56129 17.8333 0.666626 16.9387 0.666626 15.8333C0.666626 14.728 1.56129 13.8333 2.66663 13.8333H30.6666C31.772 13.8333 32.6666 14.728 32.6666 15.8333ZM2.66663 11.1667C3.77196 11.1667 4.66663 10.272 4.66663 9.16667V7.83333C4.66663 5.996 6.16263 4.5 7.99996 4.5H9.33329C10.4386 4.5 11.3333 3.60533 11.3333 2.5C11.3333 1.39467 10.4386 0.5 9.33329 0.5H7.99996C3.95596 0.5 0.666626 3.78933 0.666626 7.83333V9.16667C0.666626 10.272 1.56129 11.1667 2.66663 11.1667ZM9.33329 28.5H7.99996C6.16263 28.5 4.66663 27.004 4.66663 25.1667V23.8333C4.66663 22.728 3.77196 21.8333 2.66663 21.8333C1.56129 21.8333 0.666626 22.728 0.666626 23.8333V25.1667C0.666626 29.2107 3.95596 32.5 7.99996 32.5H9.33329C10.4386 32.5 11.3333 31.6053 11.3333 30.5C11.3333 29.3947 10.4386 28.5 9.33329 28.5ZM30.6666 21.8333C29.5613 21.8333 28.6666 22.728 28.6666 23.8333V25.1667C28.6666 27.004 27.1706 28.5 25.3333 28.5H24C22.8946 28.5 22 29.3947 22 30.5C22 31.6053 22.8946 32.5 24 32.5H25.3333C29.3773 32.5 32.6666 29.2107 32.6666 25.1667V23.8333C32.6666 22.728 31.772 21.8333 30.6666 21.8333ZM25.3333 0.5H24C22.8946 0.5 22 1.39467 22 2.5C22 3.60533 22.8946 4.5 24 4.5H25.3333C27.1706 4.5 28.6666 5.996 28.6666 7.83333V9.16667C28.6666 10.272 29.5613 11.1667 30.6666 11.1667C31.772 11.1667 32.6666 10.272 32.6666 9.16667V7.83333C32.6666 3.78933 29.3773 0.5 25.3333 0.5Z" fill="#808080"/>
</g>
<defs>
<clipPath id="clip0_194_267">
<rect width="32" height="32" fill="white" transform="translate(0.666626 0.5)"/>
</clipPath>
</defs>
</svg>
