<svg width="33" height="33" viewBox="0 0 33 33" fill="none" xmlns="http://www.w3.org/2000/svg">
<path d="M11.6666 0.5H6.99998C3.32398 0.5 0.333313 3.49067 0.333313 7.16667V11.8333C0.333313 12.9387 1.22798 13.8333 2.33331 13.8333H11.6666C12.772 13.8333 13.6666 12.9387 13.6666 11.8333V2.5C13.6666 1.39467 12.772 0.5 11.6666 0.5ZM9.66665 9.83333H4.33331V7.16667C4.33331 5.696 5.52931 4.5 6.99998 4.5H9.66665V9.83333ZM18.3333 13.8333H27.6666C28.772 13.8333 29.6666 12.9387 29.6666 11.8333V7.16667C29.6666 3.49067 26.676 0.5 23 0.5H18.3333C17.228 0.5 16.3333 1.39467 16.3333 2.5V11.8333C16.3333 12.9387 17.228 13.8333 18.3333 13.8333ZM20.3333 4.5H23C24.4706 4.5 25.6666 5.696 25.6666 7.16667V9.83333H20.3333V4.5ZM11.6666 16.5H2.33331C1.22798 16.5 0.333313 17.3947 0.333313 18.5V23.1667C0.333313 26.8427 3.32398 29.8333 6.99998 29.8333H11.6666C12.772 29.8333 13.6666 28.9387 13.6666 27.8333V18.5C13.6666 17.3947 12.772 16.5 11.6666 16.5ZM9.66665 25.8333H6.99998C5.52931 25.8333 4.33331 24.6373 4.33331 23.1667V20.5H9.66665V25.8333ZM31.748 29.0853L28.888 26.2253C29.3693 25.304 29.6666 24.2747 29.6666 23.1653C29.6666 19.4893 26.676 16.4987 23 16.4987C19.324 16.4987 16.3333 19.4893 16.3333 23.1653C16.3333 26.8413 19.324 29.832 23 29.832C24.108 29.832 25.1386 29.5347 26.06 29.0533L28.92 31.9133C29.3106 32.304 29.8226 32.4987 30.3346 32.4987C30.8466 32.4987 31.3586 32.304 31.7493 31.9133C32.5306 31.1333 32.5293 29.8653 31.748 29.0853ZM23 25.8333C21.5293 25.8333 20.3333 24.6373 20.3333 23.1667C20.3333 21.696 21.5293 20.5 23 20.5C24.4706 20.5 25.6666 21.696 25.6666 23.1667C25.6666 24.6373 24.4706 25.8333 23 25.8333Z" fill="#808080"/>
</svg>
